<mxfile host="65bd71144e">
    <diagram id="LjE-Ckj6UFavFTyb6Hqb" name="Page-1">
        <mxGraphModel dx="1444" dy="1310" grid="1" gridSize="10" guides="1" tooltips="1" connect="1" arrows="1" fold="1" page="1" pageScale="1" pageWidth="1169" pageHeight="827" math="0" shadow="0">
            <root>
                <mxCell id="0"/>
                <mxCell id="1" parent="0"/>
                <mxCell id="294" value="REL_SOURCE" style="edgeStyle=none;html=1;" parent="1" source="290" target="57" edge="1">
                    <mxGeometry relative="1" as="geometry">
                        <mxPoint as="offset"/>
                    </mxGeometry>
                </mxCell>
                <mxCell id="186" value="REL_TARGET" style="edgeStyle=none;html=1;" parent="1" source="141" target="298" edge="1">
                    <mxGeometry relative="1" as="geometry">
                        <mxPoint x="3170" y="-820" as="targetPoint"/>
                    </mxGeometry>
                </mxCell>
                <mxCell id="4" value="DEFINES" style="edgeStyle=none;rounded=0;orthogonalLoop=1;jettySize=auto;html=1;dashed=1;" parent="1" source="45" target="91" edge="1">
                    <mxGeometry relative="1" as="geometry"/>
                </mxCell>
                <mxCell id="8" value="DEFINES" style="edgeStyle=none;rounded=0;orthogonalLoop=1;jettySize=auto;html=1;dashed=1;" parent="1" source="45" target="123" edge="1">
                    <mxGeometry relative="1" as="geometry"/>
                </mxCell>
                <mxCell id="9" value="DEFINES" style="edgeStyle=none;rounded=0;orthogonalLoop=1;jettySize=auto;html=1;dashed=1;" parent="1" source="45" target="141" edge="1">
                    <mxGeometry relative="1" as="geometry"/>
                </mxCell>
                <mxCell id="11" value="DEFINES" style="edgeStyle=none;rounded=0;orthogonalLoop=1;jettySize=auto;html=1;dashed=1;" parent="1" source="45" target="96" edge="1">
                    <mxGeometry relative="1" as="geometry"/>
                </mxCell>
                <mxCell id="12" value="DEFINES" style="edgeStyle=none;rounded=0;orthogonalLoop=1;jettySize=auto;html=1;dashed=1;" parent="1" source="45" target="74" edge="1">
                    <mxGeometry relative="1" as="geometry"/>
                </mxCell>
                <mxCell id="13" value="DEFINES" style="edgeStyle=none;rounded=0;orthogonalLoop=1;jettySize=auto;html=1;dashed=1;" parent="1" source="45" target="153" edge="1">
                    <mxGeometry relative="1" as="geometry"/>
                </mxCell>
                <mxCell id="14" value="DEFINES" style="edgeStyle=none;rounded=0;orthogonalLoop=1;jettySize=auto;html=1;dashed=1;" parent="1" source="45" target="48" edge="1">
                    <mxGeometry relative="1" as="geometry"/>
                </mxCell>
                <mxCell id="16" value="DEFINES" style="edgeStyle=none;rounded=0;orthogonalLoop=1;jettySize=auto;html=1;dashed=1;" parent="1" source="45" target="131" edge="1">
                    <mxGeometry relative="1" as="geometry"/>
                </mxCell>
                <mxCell id="17" value="DEFINES" style="edgeStyle=none;rounded=0;orthogonalLoop=1;jettySize=auto;html=1;dashed=1;" parent="1" source="45" target="110" edge="1">
                    <mxGeometry relative="1" as="geometry"/>
                </mxCell>
                <mxCell id="18" value="DEFINES" style="edgeStyle=none;rounded=0;orthogonalLoop=1;jettySize=auto;html=1;dashed=1;" parent="1" source="45" target="134" edge="1">
                    <mxGeometry relative="1" as="geometry"/>
                </mxCell>
                <mxCell id="24" value="DEFINES" style="edgeStyle=none;rounded=0;orthogonalLoop=1;jettySize=auto;html=1;dashed=1;" parent="1" source="45" target="102" edge="1">
                    <mxGeometry relative="1" as="geometry"/>
                </mxCell>
                <mxCell id="27" value="DEFINES" style="edgeStyle=none;rounded=0;orthogonalLoop=1;jettySize=auto;html=1;dashed=1;" parent="1" source="45" target="57" edge="1">
                    <mxGeometry relative="1" as="geometry"/>
                </mxCell>
                <mxCell id="28" value="DEFINES" style="edgeStyle=none;rounded=0;orthogonalLoop=1;jettySize=auto;html=1;dashed=1;" parent="1" source="45" target="157" edge="1">
                    <mxGeometry relative="1" as="geometry"/>
                </mxCell>
                <mxCell id="31" value="DEFINES" style="edgeStyle=none;rounded=0;orthogonalLoop=1;jettySize=auto;html=1;dashed=1;" parent="1" source="45" target="138" edge="1">
                    <mxGeometry relative="1" as="geometry"/>
                </mxCell>
                <mxCell id="32" value="DEFINES" style="edgeStyle=none;rounded=0;orthogonalLoop=1;jettySize=auto;html=1;dashed=1;" parent="1" source="45" target="76" edge="1">
                    <mxGeometry relative="1" as="geometry"/>
                </mxCell>
                <mxCell id="33" value="DEFINES" style="edgeStyle=none;rounded=0;orthogonalLoop=1;jettySize=auto;html=1;dashed=1;" parent="1" source="45" target="180" edge="1">
                    <mxGeometry relative="1" as="geometry"/>
                </mxCell>
                <mxCell id="34" value="DEFINES" style="edgeStyle=none;rounded=0;orthogonalLoop=1;jettySize=auto;html=1;dashed=1;" parent="1" source="45" target="148" edge="1">
                    <mxGeometry relative="1" as="geometry"/>
                </mxCell>
                <mxCell id="35" value="DEFINES" style="edgeStyle=none;rounded=0;orthogonalLoop=1;jettySize=auto;html=1;dashed=1;" parent="1" source="45" target="60" edge="1">
                    <mxGeometry relative="1" as="geometry"/>
                </mxCell>
                <mxCell id="36" value="DEFINES" style="edgeStyle=none;rounded=0;orthogonalLoop=1;jettySize=auto;html=1;dashed=1;" parent="1" source="45" target="151" edge="1">
                    <mxGeometry relative="1" as="geometry"/>
                </mxCell>
                <mxCell id="38" value="DEFINES" style="edgeStyle=none;rounded=0;orthogonalLoop=1;jettySize=auto;html=1;dashed=1;" parent="1" source="45" target="99" edge="1">
                    <mxGeometry relative="1" as="geometry"/>
                </mxCell>
                <mxCell id="40" value="DEFINES" style="edgeStyle=none;rounded=0;orthogonalLoop=1;jettySize=auto;html=1;dashed=1;" parent="1" source="45" target="54" edge="1">
                    <mxGeometry relative="1" as="geometry"/>
                </mxCell>
                <mxCell id="41" value="DEFINES" style="edgeStyle=none;rounded=0;orthogonalLoop=1;jettySize=auto;html=1;dashed=1;" parent="1" source="45" target="167" edge="1">
                    <mxGeometry relative="1" as="geometry"/>
                </mxCell>
                <mxCell id="42" value="DEFINES" style="edgeStyle=none;rounded=0;orthogonalLoop=1;jettySize=auto;html=1;dashed=1;" parent="1" source="45" target="69" edge="1">
                    <mxGeometry relative="1" as="geometry"/>
                </mxCell>
                <mxCell id="43" value="DEFINES" style="edgeStyle=none;rounded=0;orthogonalLoop=1;jettySize=auto;html=1;dashed=1;" parent="1" source="45" target="171" edge="1">
                    <mxGeometry relative="1" as="geometry"/>
                </mxCell>
                <mxCell id="44" value="DEFINES" style="edgeStyle=none;html=1;dashed=1;" parent="1" source="45" target="176" edge="1">
                    <mxGeometry relative="1" as="geometry"/>
                </mxCell>
                <mxCell id="192" value="DEPENDS_ON" style="edgeStyle=none;html=1;" parent="1" source="45" target="187" edge="1">
                    <mxGeometry relative="1" as="geometry">
                        <mxPoint x="2270" y="140" as="targetPoint"/>
                    </mxGeometry>
                </mxCell>
                <mxCell id="202" value="DEPENDS_ON" style="edgeStyle=none;html=1;" parent="1" source="45" target="201" edge="1">
                    <mxGeometry relative="1" as="geometry"/>
                </mxCell>
                <mxCell id="214" value="DEFINES" style="edgeStyle=none;html=1;dashed=1;" parent="1" source="45" target="211" edge="1">
                    <mxGeometry relative="1" as="geometry"/>
                </mxCell>
                <mxCell id="215" value="DEFINES" style="edgeStyle=none;html=1;dashed=1;" parent="1" source="45" target="210" edge="1">
                    <mxGeometry relative="1" as="geometry"/>
                </mxCell>
                <mxCell id="274" value="DEFINES" style="edgeStyle=none;html=1;dashed=1;" parent="1" source="45" target="226" edge="1">
                    <mxGeometry relative="1" as="geometry"/>
                </mxCell>
                <mxCell id="275" value="DEFINES" style="edgeStyle=none;html=1;dashed=1;" parent="1" source="45" target="232" edge="1">
                    <mxGeometry relative="1" as="geometry"/>
                </mxCell>
                <mxCell id="276" value="DEFINES" style="edgeStyle=none;html=1;dashed=1;" parent="1" source="45" target="237" edge="1">
                    <mxGeometry relative="1" as="geometry"/>
                </mxCell>
                <mxCell id="277" value="DEFINES" style="edgeStyle=none;html=1;dashed=1;" parent="1" source="45" target="236" edge="1">
                    <mxGeometry relative="1" as="geometry"/>
                </mxCell>
                <mxCell id="278" value="DEFINES" style="edgeStyle=none;html=1;dashed=1;" parent="1" source="45" target="229" edge="1">
                    <mxGeometry relative="1" as="geometry"/>
                </mxCell>
                <mxCell id="279" value="DEFINES" style="edgeStyle=none;html=1;dashed=1;" parent="1" source="45" target="234" edge="1">
                    <mxGeometry relative="1" as="geometry"/>
                </mxCell>
                <mxCell id="280" value="DEFINES" style="edgeStyle=none;html=1;dashed=1;" parent="1" source="45" target="235" edge="1">
                    <mxGeometry relative="1" as="geometry"/>
                </mxCell>
                <mxCell id="281" value="DEFINES" style="edgeStyle=none;html=1;dashed=1;" parent="1" source="45" target="221" edge="1">
                    <mxGeometry relative="1" as="geometry"/>
                </mxCell>
                <mxCell id="45" value="&lt;font color=&quot;#000000&quot;&gt;&lt;b style=&quot;font-size: 13px&quot;&gt;Metagraph&lt;/b&gt;&lt;br&gt;&lt;span style=&quot;font-size: 13px&quot;&gt;- name: &quot;Graphview&quot;&lt;/span&gt;&lt;br&gt;&lt;span style=&quot;font-size: 13px&quot;&gt;- uuid: &quot;6d897e9c-066a-45b4-a3a2-6c3b7a2fa73e&quot;&lt;/span&gt;&lt;br&gt;&lt;/font&gt;" style="ellipse;whiteSpace=wrap;html=1;aspect=fixed;direction=west;strokeColor=#56517e;fillColor=#d0cee2;" parent="1" vertex="1">
                    <mxGeometry x="40" y="40" width="120" height="120" as="geometry"/>
                </mxCell>
                <mxCell id="46" value="HAS_TYPE" style="edgeStyle=none;html=1;" parent="1" source="48" target="282" edge="1">
                    <mxGeometry relative="1" as="geometry"/>
                </mxCell>
                <mxCell id="48" value="&lt;b&gt;&lt;font style=&quot;font-size: 13px&quot; color=&quot;#000000&quot;&gt;NodeDef&lt;br&gt;&lt;/font&gt;&lt;/b&gt;&lt;span style=&quot;color: rgb(0 , 0 , 0) ; font-size: 13px&quot;&gt;- name: &quot;Project&quot;&lt;br&gt;&lt;/span&gt;&lt;font color=&quot;#000000&quot;&gt;&lt;span style=&quot;font-size: 13px&quot;&gt;- uuid: &quot;e045565c-a449-42f2-ac15-e85f9c51f6da&lt;/span&gt;&lt;span style=&quot;font-size: 13px&quot;&gt;&quot;&lt;/span&gt;&lt;br&gt;&lt;/font&gt;" style="ellipse;whiteSpace=wrap;html=1;aspect=fixed;direction=west;strokeColor=#9673a6;fillColor=#CCFF99;" parent="1" vertex="1">
                    <mxGeometry x="1480" y="240" width="120" height="120" as="geometry"/>
                </mxCell>
                <mxCell id="53" value="HAS_TYPE" style="edgeStyle=none;html=1;" parent="1" source="54" target="69" edge="1">
                    <mxGeometry relative="1" as="geometry"/>
                </mxCell>
                <mxCell id="54" value="&lt;b&gt;&lt;font style=&quot;font-size: 13px&quot; color=&quot;#000000&quot;&gt;NodeDef&lt;br&gt;&lt;/font&gt;&lt;/b&gt;&lt;span style=&quot;color: rgb(0 , 0 , 0) ; font-size: 13px&quot;&gt;- name: &quot;RelStyle&quot;&lt;/span&gt;&lt;b&gt;&lt;font style=&quot;font-size: 13px&quot; color=&quot;#000000&quot;&gt;&lt;br&gt;&lt;/font&gt;&lt;/b&gt;" style="ellipse;whiteSpace=wrap;html=1;aspect=fixed;direction=west;strokeColor=#9673a6;fillColor=#CCFF99;" parent="1" vertex="1">
                    <mxGeometry x="2440" y="1440" width="120" height="120" as="geometry"/>
                </mxCell>
                <mxCell id="55" value="HAS_TYPE" style="edgeStyle=none;html=1;" parent="1" source="57" target="282" edge="1">
                    <mxGeometry relative="1" as="geometry"/>
                </mxCell>
                <mxCell id="56" value="HAS_TYPE" style="edgeStyle=none;html=1;" parent="1" source="57" target="74" edge="1">
                    <mxGeometry relative="1" as="geometry"/>
                </mxCell>
                <mxCell id="57" value="&lt;b&gt;&lt;font style=&quot;font-size: 13px&quot; color=&quot;#000000&quot;&gt;NodeDef&lt;br&gt;&lt;/font&gt;&lt;/b&gt;&lt;span style=&quot;color: rgb(0 , 0 , 0) ; font-size: 13px&quot;&gt;- name: &quot;Action&quot;&lt;/span&gt;&lt;b&gt;&lt;font style=&quot;font-size: 13px&quot; color=&quot;#000000&quot;&gt;&lt;br&gt;&lt;/font&gt;&lt;/b&gt;" style="ellipse;whiteSpace=wrap;html=1;aspect=fixed;direction=west;strokeColor=#9673a6;fillColor=#CCFF99;" parent="1" vertex="1">
                    <mxGeometry x="760" y="1440" width="120" height="120" as="geometry"/>
                </mxCell>
                <mxCell id="58" value="HAS_TYPE" style="edgeStyle=none;html=1;" parent="1" source="60" target="282" edge="1">
                    <mxGeometry relative="1" as="geometry"/>
                </mxCell>
                <mxCell id="60" value="&lt;b&gt;&lt;font style=&quot;font-size: 13px&quot; color=&quot;#000000&quot;&gt;NodeDef&lt;br&gt;&lt;/font&gt;&lt;/b&gt;&lt;span style=&quot;color: rgb(0 , 0 , 0) ; font-size: 13px&quot;&gt;- name: &quot;ActionParameter&quot;&lt;/span&gt;&lt;b&gt;&lt;font style=&quot;font-size: 13px&quot; color=&quot;#000000&quot;&gt;&lt;br&gt;&lt;/font&gt;&lt;/b&gt;" style="ellipse;whiteSpace=wrap;html=1;aspect=fixed;direction=west;strokeColor=#9673a6;fillColor=#CCFF99;" parent="1" vertex="1">
                    <mxGeometry x="760" y="1840" width="120" height="120" as="geometry"/>
                </mxCell>
                <mxCell id="61" value="HAS_TYPE" style="edgeStyle=none;html=1;" parent="1" source="180" target="76" edge="1">
                    <mxGeometry relative="1" as="geometry"/>
                </mxCell>
                <mxCell id="65" value="HAS_PROPERTY" style="edgeStyle=none;rounded=0;orthogonalLoop=1;jettySize=auto;html=1;" parent="1" source="69" target="85" edge="1">
                    <mxGeometry relative="1" as="geometry"/>
                </mxCell>
                <mxCell id="66" value="HAS_PROPERTY" style="edgeStyle=none;rounded=0;orthogonalLoop=1;jettySize=auto;html=1;" parent="1" source="69" target="84" edge="1">
                    <mxGeometry relative="1" as="geometry"/>
                </mxCell>
                <mxCell id="67" value="HAS_PROPERTY" style="edgeStyle=none;rounded=0;orthogonalLoop=1;jettySize=auto;html=1;" parent="1" source="69" target="83" edge="1">
                    <mxGeometry relative="1" as="geometry"/>
                </mxCell>
                <mxCell id="68" value="HAS_PROPERTY" style="edgeStyle=none;rounded=0;orthogonalLoop=1;jettySize=auto;html=1;" parent="1" source="69" target="82" edge="1">
                    <mxGeometry relative="1" as="geometry"/>
                </mxCell>
                <mxCell id="69" value="&lt;font style=&quot;font-size: 13px&quot; color=&quot;#000000&quot;&gt;&lt;b&gt;Type&lt;/b&gt;&lt;br&gt;- name: &quot;RelStyle&quot;&lt;br&gt;&lt;/font&gt;" style="ellipse;whiteSpace=wrap;html=1;aspect=fixed;direction=west;fillColor=#ffe6cc;strokeColor=#d79b00;" parent="1" vertex="1">
                    <mxGeometry x="2680" y="1440" width="120" height="120" as="geometry"/>
                </mxCell>
                <mxCell id="72" value="HAS_PROPERTY" style="edgeStyle=none;rounded=0;orthogonalLoop=1;jettySize=auto;html=1;" parent="1" source="74" target="86" edge="1">
                    <mxGeometry relative="1" as="geometry"/>
                </mxCell>
                <mxCell id="73" value="HAS_PROPERTY" style="edgeStyle=none;rounded=0;orthogonalLoop=1;jettySize=auto;html=1;" parent="1" source="74" target="181" edge="1">
                    <mxGeometry relative="1" as="geometry"/>
                </mxCell>
                <mxCell id="209" value="HAS_PROPERTY" style="edgeStyle=none;html=1;" parent="1" source="74" target="208" edge="1">
                    <mxGeometry relative="1" as="geometry"/>
                </mxCell>
                <mxCell id="74" value="&lt;font style=&quot;font-size: 13px&quot; color=&quot;#000000&quot;&gt;&lt;b&gt;Type&lt;/b&gt;&lt;br&gt;- name: &quot;Action&quot;&lt;br&gt;&lt;/font&gt;" style="ellipse;whiteSpace=wrap;html=1;aspect=fixed;direction=west;fillColor=#ffe6cc;strokeColor=#d79b00;" parent="1" vertex="1">
                    <mxGeometry x="520" y="1440" width="120" height="120" as="geometry"/>
                </mxCell>
                <mxCell id="75" value="HAS_PROPERTY" style="edgeStyle=none;rounded=0;orthogonalLoop=1;jettySize=auto;html=1;" parent="1" source="76" target="81" edge="1">
                    <mxGeometry relative="1" as="geometry"/>
                </mxCell>
                <mxCell id="76" value="&lt;font style=&quot;font-size: 13px&quot; color=&quot;#000000&quot;&gt;&lt;b&gt;Type&lt;/b&gt;&lt;br&gt;- name: &quot;Widget&quot;&lt;br&gt;&lt;/font&gt;" style="ellipse;whiteSpace=wrap;html=1;aspect=fixed;direction=west;fillColor=#ffe6cc;strokeColor=#d79b00;" parent="1" vertex="1">
                    <mxGeometry x="520" y="2240" width="120" height="120" as="geometry"/>
                </mxCell>
                <mxCell id="81" value="&lt;font style=&quot;font-size: 13px&quot; color=&quot;#000000&quot;&gt;&lt;b&gt;Property&lt;/b&gt;&lt;br&gt;- name: &quot;type&quot;&lt;br&gt;- type: &quot;String&quot;&lt;br&gt;&lt;/font&gt;" style="ellipse;whiteSpace=wrap;html=1;aspect=fixed;direction=west;strokeColor=#d79b00;fillColor=#FF9999;" parent="1" vertex="1">
                    <mxGeometry x="280" y="2240" width="120" height="120" as="geometry"/>
                </mxCell>
                <mxCell id="82" value="&lt;font style=&quot;font-size: 13px&quot; color=&quot;#000000&quot;&gt;&lt;b&gt;Property&lt;/b&gt;&lt;br&gt;- name: &quot;color&quot;&lt;br&gt;- type: &quot;String&quot;&lt;br&gt;&lt;/font&gt;" style="ellipse;whiteSpace=wrap;html=1;aspect=fixed;direction=west;strokeColor=#d79b00;fillColor=#FF9999;" parent="1" vertex="1">
                    <mxGeometry x="2920" y="1440" width="120" height="120" as="geometry"/>
                </mxCell>
                <mxCell id="83" value="&lt;font style=&quot;font-size: 13px&quot; color=&quot;#000000&quot;&gt;&lt;b&gt;Property&lt;/b&gt;&lt;br&gt;- name: &quot;icon&quot;&lt;br&gt;- type: &quot;String&quot;&lt;br&gt;&lt;/font&gt;" style="ellipse;whiteSpace=wrap;html=1;aspect=fixed;direction=west;strokeColor=#d79b00;fillColor=#FF9999;" parent="1" vertex="1">
                    <mxGeometry x="2920" y="1640" width="120" height="120" as="geometry"/>
                </mxCell>
                <mxCell id="84" value="&lt;font style=&quot;font-size: 13px&quot; color=&quot;#000000&quot;&gt;&lt;b&gt;Property&lt;/b&gt;&lt;br&gt;- name: &quot;lineStyle&quot;&lt;br&gt;- type: &quot;String&quot;&lt;br&gt;&lt;/font&gt;" style="ellipse;whiteSpace=wrap;html=1;aspect=fixed;direction=west;strokeColor=#d79b00;fillColor=#FF9999;" parent="1" vertex="1">
                    <mxGeometry x="2920" y="1840" width="120" height="120" as="geometry"/>
                </mxCell>
                <mxCell id="85" value="&lt;font style=&quot;font-size: 13px&quot; color=&quot;#000000&quot;&gt;&lt;b&gt;Property&lt;/b&gt;&lt;br&gt;- name: &quot;lineWidth&quot;&lt;br&gt;- type: &quot;Integer&quot;&lt;br&gt;&lt;/font&gt;" style="ellipse;whiteSpace=wrap;html=1;aspect=fixed;direction=west;strokeColor=#d79b00;fillColor=#FF9999;" parent="1" vertex="1">
                    <mxGeometry x="2920" y="2040" width="120" height="120" as="geometry"/>
                </mxCell>
                <mxCell id="86" value="&lt;font style=&quot;font-size: 13px&quot; color=&quot;#000000&quot;&gt;&lt;b&gt;Property&lt;/b&gt;&lt;br&gt;- name: &quot;icon&quot;&lt;br&gt;- type: &quot;String&quot;&lt;br&gt;&lt;/font&gt;" style="ellipse;whiteSpace=wrap;html=1;aspect=fixed;direction=west;strokeColor=#d79b00;fillColor=#FF9999;" parent="1" vertex="1">
                    <mxGeometry x="280" y="1640" width="120" height="120" as="geometry"/>
                </mxCell>
                <mxCell id="89" value="HAS_PROPERTY" style="edgeStyle=none;rounded=0;orthogonalLoop=1;jettySize=auto;html=1;" parent="1" source="91" target="92" edge="1">
                    <mxGeometry relative="1" as="geometry"/>
                </mxCell>
                <mxCell id="90" value="HAS_PROPERTY" style="edgeStyle=none;rounded=0;orthogonalLoop=1;jettySize=auto;html=1;" parent="1" source="91" target="93" edge="1">
                    <mxGeometry relative="1" as="geometry"/>
                </mxCell>
                <mxCell id="91" value="&lt;font style=&quot;font-size: 13px&quot; color=&quot;#000000&quot;&gt;&lt;b&gt;Type&lt;/b&gt;&lt;br&gt;- name: &quot;&lt;/font&gt;&lt;span style=&quot;color: rgb(0 , 0 , 0) ; font-size: 13px&quot;&gt;DISPLAY_NODE&lt;/span&gt;&lt;font style=&quot;font-size: 13px&quot; color=&quot;#000000&quot;&gt;&quot;&lt;br&gt;&lt;/font&gt;" style="ellipse;whiteSpace=wrap;html=1;aspect=fixed;direction=west;fillColor=#ffe6cc;strokeColor=#d79b00;" parent="1" vertex="1">
                    <mxGeometry x="2440" y="240" width="120" height="120" as="geometry"/>
                </mxCell>
                <mxCell id="92" value="&lt;font style=&quot;font-size: 13px&quot; color=&quot;#000000&quot;&gt;&lt;b&gt;Property&lt;/b&gt;&lt;br&gt;- name: &quot;x&quot;&lt;br&gt;- type: &quot;Integer&quot;&lt;br&gt;&lt;/font&gt;" style="ellipse;whiteSpace=wrap;html=1;aspect=fixed;direction=west;strokeColor=#d79b00;fillColor=#FF9999;" parent="1" vertex="1">
                    <mxGeometry x="2200" y="440" width="120" height="120" as="geometry"/>
                </mxCell>
                <mxCell id="93" value="&lt;font style=&quot;font-size: 13px&quot; color=&quot;#000000&quot;&gt;&lt;b&gt;Property&lt;/b&gt;&lt;br&gt;- name: &quot;y&quot;&lt;br&gt;- type: &quot;Integer&quot;&lt;br&gt;&lt;/font&gt;" style="ellipse;whiteSpace=wrap;html=1;aspect=fixed;direction=west;strokeColor=#d79b00;fillColor=#FF9999;" parent="1" vertex="1">
                    <mxGeometry x="2440" y="440" width="120" height="120" as="geometry"/>
                </mxCell>
                <mxCell id="95" value="REL_SOURCE" style="edgeStyle=none;html=1;" parent="1" source="96" target="167" edge="1">
                    <mxGeometry relative="1" as="geometry">
                        <mxPoint x="2140" y="1930" as="targetPoint"/>
                    </mxGeometry>
                </mxCell>
                <mxCell id="205" value="REL_TARGET" style="edgeStyle=none;html=1;" parent="1" source="96" target="198" edge="1">
                    <mxGeometry relative="1" as="geometry"/>
                </mxCell>
                <mxCell id="96" value="&lt;b&gt;&lt;font style=&quot;font-size: 13px&quot; color=&quot;#000000&quot;&gt;RelDef&lt;br&gt;&lt;/font&gt;&lt;/b&gt;&lt;span style=&quot;color: rgb(0 , 0 , 0) ; font-size: 13px&quot;&gt;- name: &quot;HAS_CAPTION&quot;&lt;/span&gt;&lt;b&gt;&lt;font style=&quot;font-size: 13px&quot; color=&quot;#000000&quot;&gt;&lt;br&gt;&lt;/font&gt;&lt;/b&gt;" style="ellipse;whiteSpace=wrap;html=1;aspect=fixed;direction=west;strokeColor=#9673a6;fillColor=#CCFF99;" parent="1" vertex="1">
                    <mxGeometry x="1960" y="1640" width="120" height="120" as="geometry"/>
                </mxCell>
                <mxCell id="98" value="REL_SOURCE" style="edgeStyle=none;html=1;" parent="1" source="99" target="54" edge="1">
                    <mxGeometry relative="1" as="geometry">
                        <mxPoint x="2280" y="2070" as="targetPoint"/>
                    </mxGeometry>
                </mxCell>
                <mxCell id="204" value="REL_TARGET" style="edgeStyle=none;html=1;" parent="1" source="99" target="198" edge="1">
                    <mxGeometry relative="1" as="geometry"/>
                </mxCell>
                <mxCell id="99" value="&lt;b&gt;&lt;font style=&quot;font-size: 13px&quot; color=&quot;#000000&quot;&gt;RelDef&lt;br&gt;&lt;/font&gt;&lt;/b&gt;&lt;span style=&quot;color: rgb(0 , 0 , 0) ; font-size: 13px&quot;&gt;- name: &quot;HAS_CAPTION&quot;&lt;/span&gt;&lt;b&gt;&lt;font style=&quot;font-size: 13px&quot; color=&quot;#000000&quot;&gt;&lt;br&gt;&lt;/font&gt;&lt;/b&gt;" style="ellipse;whiteSpace=wrap;html=1;aspect=fixed;direction=west;strokeColor=#9673a6;fillColor=#CCFF99;" parent="1" vertex="1">
                    <mxGeometry x="2440" y="1640" width="120" height="120" as="geometry"/>
                </mxCell>
                <mxCell id="100" value="REL_SOURCE" style="edgeStyle=none;rounded=0;orthogonalLoop=1;jettySize=auto;html=1;" parent="1" source="102" target="167" edge="1">
                    <mxGeometry relative="1" as="geometry">
                        <mxPoint x="2250" y="1990" as="targetPoint"/>
                    </mxGeometry>
                </mxCell>
                <mxCell id="207" value="REL_TARGET" style="edgeStyle=none;html=1;" parent="1" source="102" target="199" edge="1">
                    <mxGeometry relative="1" as="geometry"/>
                </mxCell>
                <mxCell id="102" value="&lt;b&gt;&lt;font style=&quot;font-size: 13px&quot; color=&quot;#000000&quot;&gt;RelDef&lt;br&gt;&lt;/font&gt;&lt;/b&gt;&lt;span style=&quot;color: rgb(0 , 0 , 0) ; font-size: 13px&quot;&gt;- name: &quot;FOR_NODE&quot;&lt;/span&gt;&lt;b&gt;&lt;font style=&quot;font-size: 13px&quot; color=&quot;#000000&quot;&gt;&lt;br&gt;&lt;/font&gt;&lt;/b&gt;" style="ellipse;whiteSpace=wrap;html=1;aspect=fixed;direction=west;strokeColor=#9673a6;fillColor=#CCFF99;" parent="1" vertex="1">
                    <mxGeometry x="1720" y="1640" width="120" height="120" as="geometry"/>
                </mxCell>
                <mxCell id="107" value="REL_SOURCE" style="edgeStyle=none;rounded=0;orthogonalLoop=1;jettySize=auto;html=1;" parent="1" source="110" target="221" edge="1">
                    <mxGeometry relative="1" as="geometry"/>
                </mxCell>
                <mxCell id="108" value="REL_TARGET" style="edgeStyle=none;rounded=0;orthogonalLoop=1;jettySize=auto;html=1;" parent="1" source="110" target="57" edge="1">
                    <mxGeometry relative="1" as="geometry"/>
                </mxCell>
                <mxCell id="110" value="&lt;b&gt;&lt;font style=&quot;font-size: 13px&quot; color=&quot;#000000&quot;&gt;RelDef&lt;br&gt;&lt;/font&gt;&lt;/b&gt;&lt;span style=&quot;color: rgb(0 , 0 , 0) ; font-size: 13px&quot;&gt;- name: &quot;DEFAULT_NODE_ACTION&quot;&lt;/span&gt;&lt;b&gt;&lt;font style=&quot;font-size: 13px&quot; color=&quot;#000000&quot;&gt;&lt;br&gt;&lt;/font&gt;&lt;/b&gt;" style="ellipse;whiteSpace=wrap;html=1;aspect=fixed;direction=west;strokeColor=#9673a6;fillColor=#CCFF99;" parent="1" vertex="1">
                    <mxGeometry x="520" y="1240" width="120" height="120" as="geometry"/>
                </mxCell>
                <mxCell id="119" value="REL_SOURCE" style="edgeStyle=none;rounded=0;orthogonalLoop=1;jettySize=auto;html=1;" parent="1" source="123" target="210" edge="1">
                    <mxGeometry relative="1" as="geometry"/>
                </mxCell>
                <mxCell id="120" value="REL_TARGET" style="edgeStyle=none;rounded=0;orthogonalLoop=1;jettySize=auto;html=1;" parent="1" source="123" target="284" edge="1">
                    <mxGeometry x="0.118" y="5" relative="1" as="geometry">
                        <mxPoint x="1830" y="2930" as="targetPoint"/>
                        <mxPoint as="offset"/>
                    </mxGeometry>
                </mxCell>
                <mxCell id="121" value="HAS_TYPE" style="edgeStyle=none;html=1;" parent="1" source="123" target="91" edge="1">
                    <mxGeometry relative="1" as="geometry"/>
                </mxCell>
                <mxCell id="123" value="&lt;b&gt;&lt;font style=&quot;font-size: 13px&quot; color=&quot;#000000&quot;&gt;RelDef&lt;br&gt;&lt;/font&gt;&lt;/b&gt;&lt;span style=&quot;color: rgb(0 , 0 , 0) ; font-size: 13px&quot;&gt;- name: &quot;DISPLAY_NODE&quot;&lt;/span&gt;&lt;b&gt;&lt;font style=&quot;font-size: 13px&quot; color=&quot;#000000&quot;&gt;&lt;br&gt;&lt;/font&gt;&lt;/b&gt;" style="ellipse;whiteSpace=wrap;html=1;aspect=fixed;direction=west;strokeColor=#9673a6;fillColor=#CCFF99;" parent="1" vertex="1">
                    <mxGeometry x="2200" y="240" width="120" height="120" as="geometry"/>
                </mxCell>
                <mxCell id="128" value="REL_SOURCE" style="edgeStyle=none;rounded=0;orthogonalLoop=1;jettySize=auto;html=1;" parent="1" source="131" target="221" edge="1">
                    <mxGeometry relative="1" as="geometry"/>
                </mxCell>
                <mxCell id="129" value="REL_TARGET" style="edgeStyle=none;rounded=0;orthogonalLoop=1;jettySize=auto;html=1;" parent="1" source="131" target="57" edge="1">
                    <mxGeometry relative="1" as="geometry"/>
                </mxCell>
                <mxCell id="131" value="&lt;b&gt;&lt;font style=&quot;font-size: 13px&quot; color=&quot;#000000&quot;&gt;RelDef&lt;br&gt;&lt;/font&gt;&lt;/b&gt;&lt;span style=&quot;color: rgb(0 , 0 , 0) ; font-size: 13px&quot;&gt;- name: &quot;DEFAULT_REL_ACTION&quot;&lt;/span&gt;&lt;b&gt;&lt;font style=&quot;font-size: 13px&quot; color=&quot;#000000&quot;&gt;&lt;br&gt;&lt;/font&gt;&lt;/b&gt;" style="ellipse;whiteSpace=wrap;html=1;aspect=fixed;direction=west;strokeColor=#9673a6;fillColor=#CCFF99;" parent="1" vertex="1">
                    <mxGeometry x="1000" y="1240" width="120" height="120" as="geometry"/>
                </mxCell>
                <mxCell id="132" value="REL_SOURCE" style="edgeStyle=none;rounded=0;orthogonalLoop=1;jettySize=auto;html=1;" parent="1" source="134" target="54" edge="1">
                    <mxGeometry relative="1" as="geometry">
                        <mxPoint x="2600" y="2150" as="targetPoint"/>
                    </mxGeometry>
                </mxCell>
                <mxCell id="206" value="REL_TARGET" style="edgeStyle=none;html=1;" parent="1" source="134" target="200" edge="1">
                    <mxGeometry relative="1" as="geometry"/>
                </mxCell>
                <mxCell id="134" value="&lt;b&gt;&lt;font style=&quot;font-size: 13px&quot; color=&quot;#000000&quot;&gt;RelDef&lt;br&gt;&lt;/font&gt;&lt;/b&gt;&lt;span style=&quot;color: rgb(0 , 0 , 0) ; font-size: 13px&quot;&gt;- name: &quot;FOR_REL&quot;&lt;/span&gt;&lt;b&gt;&lt;font style=&quot;font-size: 13px&quot; color=&quot;#000000&quot;&gt;&lt;br&gt;&lt;/font&gt;&lt;/b&gt;" style="ellipse;whiteSpace=wrap;html=1;aspect=fixed;direction=west;strokeColor=#9673a6;fillColor=#CCFF99;" parent="1" vertex="1">
                    <mxGeometry x="2680" y="1640" width="120" height="120" as="geometry"/>
                </mxCell>
                <mxCell id="135" value="REL_SOURCE" style="edgeStyle=none;rounded=0;orthogonalLoop=1;jettySize=auto;html=1;" parent="1" source="138" target="57" edge="1">
                    <mxGeometry relative="1" as="geometry"/>
                </mxCell>
                <mxCell id="136" value="REL_TARGET" style="edgeStyle=none;rounded=0;orthogonalLoop=1;jettySize=auto;html=1;" parent="1" source="138" target="60" edge="1">
                    <mxGeometry relative="1" as="geometry"/>
                </mxCell>
                <mxCell id="138" value="&lt;b&gt;&lt;font style=&quot;font-size: 13px&quot; color=&quot;#000000&quot;&gt;RelDef&lt;br&gt;&lt;/font&gt;&lt;/b&gt;&lt;span style=&quot;color: rgb(0 , 0 , 0) ; font-size: 13px&quot;&gt;- name: &quot;WITH_PARAMETER&quot;&lt;/span&gt;&lt;b&gt;&lt;font style=&quot;font-size: 13px&quot; color=&quot;#000000&quot;&gt;&lt;br&gt;&lt;/font&gt;&lt;/b&gt;" style="ellipse;whiteSpace=wrap;html=1;aspect=fixed;direction=west;strokeColor=#9673a6;fillColor=#CCFF99;" parent="1" vertex="1">
                    <mxGeometry x="760" y="1640" width="120" height="120" as="geometry"/>
                </mxCell>
                <mxCell id="139" value="REL_SOURCE" style="edgeStyle=none;rounded=0;orthogonalLoop=1;jettySize=auto;html=1;" parent="1" source="141" target="210" edge="1">
                    <mxGeometry relative="1" as="geometry"/>
                </mxCell>
                <mxCell id="141" value="&lt;b&gt;&lt;font style=&quot;font-size: 13px&quot; color=&quot;#000000&quot;&gt;RelDef&lt;br&gt;&lt;/font&gt;&lt;/b&gt;&lt;span style=&quot;color: rgb(0 , 0 , 0) ; font-size: 13px&quot;&gt;- name: &quot;QUERIES_WITH&quot;&lt;/span&gt;&lt;b&gt;&lt;font style=&quot;font-size: 13px&quot; color=&quot;#000000&quot;&gt;&lt;br&gt;&lt;/font&gt;&lt;/b&gt;" style="ellipse;whiteSpace=wrap;html=1;aspect=fixed;direction=west;strokeColor=#9673a6;fillColor=#CCFF99;" parent="1" vertex="1">
                    <mxGeometry x="1480" y="840" width="120" height="120" as="geometry"/>
                </mxCell>
                <mxCell id="145" value="REL_SOURCE" style="edgeStyle=none;rounded=0;orthogonalLoop=1;jettySize=auto;html=1;" parent="1" source="148" target="60" edge="1">
                    <mxGeometry relative="1" as="geometry"/>
                </mxCell>
                <mxCell id="146" value="REL_TARGET" style="edgeStyle=none;rounded=0;orthogonalLoop=1;jettySize=auto;html=1;" parent="1" source="148" target="180" edge="1">
                    <mxGeometry relative="1" as="geometry"/>
                </mxCell>
                <mxCell id="148" value="&lt;b&gt;&lt;font style=&quot;font-size: 13px&quot; color=&quot;#000000&quot;&gt;RelDef&lt;br&gt;&lt;/font&gt;&lt;/b&gt;&lt;span style=&quot;color: rgb(0 , 0 , 0) ; font-size: 13px&quot;&gt;- name: &quot;RENDERED_WITH&quot;&lt;/span&gt;&lt;b&gt;&lt;font style=&quot;font-size: 13px&quot; color=&quot;#000000&quot;&gt;&lt;br&gt;&lt;/font&gt;&lt;/b&gt;" style="ellipse;whiteSpace=wrap;html=1;aspect=fixed;direction=west;strokeColor=#9673a6;fillColor=#CCFF99;" parent="1" vertex="1">
                    <mxGeometry x="760" y="2040" width="120" height="120" as="geometry"/>
                </mxCell>
                <mxCell id="149" value="REL_SOURCE" style="edgeStyle=none;rounded=0;orthogonalLoop=1;jettySize=auto;html=1;" parent="1" source="151" target="60" edge="1">
                    <mxGeometry relative="1" as="geometry"/>
                </mxCell>
                <mxCell id="184" value="REL_TARGET" style="edgeStyle=none;html=1;" parent="1" source="151" target="189" edge="1">
                    <mxGeometry relative="1" as="geometry">
                        <mxPoint x="2700" y="-1470" as="targetPoint"/>
                    </mxGeometry>
                </mxCell>
                <mxCell id="151" value="&lt;b&gt;&lt;font style=&quot;font-size: 13px&quot; color=&quot;#000000&quot;&gt;RelDef&lt;br&gt;&lt;/font&gt;&lt;/b&gt;&lt;span style=&quot;color: rgb(0 , 0 , 0) ; font-size: 13px&quot;&gt;- name: &quot;PROVIDES_VALUE&quot;&lt;/span&gt;&lt;b&gt;&lt;font style=&quot;font-size: 13px&quot; color=&quot;#000000&quot;&gt;&lt;br&gt;&lt;/font&gt;&lt;/b&gt;" style="ellipse;whiteSpace=wrap;html=1;aspect=fixed;direction=west;strokeColor=#9673a6;fillColor=#CCFF99;" parent="1" vertex="1">
                    <mxGeometry x="1000" y="2040" width="120" height="120" as="geometry"/>
                </mxCell>
                <mxCell id="152" value="REL_SOURCE" style="edgeStyle=none;rounded=0;orthogonalLoop=1;jettySize=auto;html=1;" parent="1" source="153" target="221" edge="1">
                    <mxGeometry relative="1" as="geometry"/>
                </mxCell>
                <mxCell id="203" value="REL_TARGET" style="edgeStyle=none;html=1;" parent="1" source="153" target="197" edge="1">
                    <mxGeometry relative="1" as="geometry">
                        <mxPoint x="2790" y="-1260" as="targetPoint"/>
                    </mxGeometry>
                </mxCell>
                <mxCell id="153" value="&lt;b&gt;&lt;font style=&quot;font-size: 13px&quot; color=&quot;#000000&quot;&gt;RelDef&lt;br&gt;&lt;/font&gt;&lt;/b&gt;&lt;span style=&quot;color: rgb(0 , 0 , 0) ; font-size: 13px&quot;&gt;- name: &quot;AUTOGENERATED_FROM&quot;&lt;/span&gt;&lt;b&gt;&lt;font style=&quot;font-size: 13px&quot; color=&quot;#000000&quot;&gt;&lt;br&gt;&lt;/font&gt;&lt;/b&gt;" style="ellipse;whiteSpace=wrap;html=1;aspect=fixed;direction=west;strokeColor=#9673a6;fillColor=#CCFF99;" parent="1" vertex="1">
                    <mxGeometry x="760" y="840" width="120" height="120" as="geometry"/>
                </mxCell>
                <mxCell id="154" value="REL_SOURCE" style="edgeStyle=none;rounded=0;orthogonalLoop=1;jettySize=auto;html=1;" parent="1" source="157" target="221" edge="1">
                    <mxGeometry relative="1" as="geometry"/>
                </mxCell>
                <mxCell id="155" value="REL_TARGET" style="edgeStyle=none;rounded=0;orthogonalLoop=1;jettySize=auto;html=1;" parent="1" source="157" target="57" edge="1">
                    <mxGeometry relative="1" as="geometry"/>
                </mxCell>
                <mxCell id="157" value="&lt;b&gt;&lt;font style=&quot;font-size: 13px&quot; color=&quot;#000000&quot;&gt;RelDef&lt;br&gt;&lt;/font&gt;&lt;/b&gt;&lt;span style=&quot;color: rgb(0 , 0 , 0) ; font-size: 13px&quot;&gt;- name: &quot;HAS_ACTION&quot;&lt;/span&gt;&lt;b&gt;&lt;font style=&quot;font-size: 13px&quot; color=&quot;#000000&quot;&gt;&lt;br&gt;&lt;/font&gt;&lt;/b&gt;" style="ellipse;whiteSpace=wrap;html=1;aspect=fixed;direction=west;strokeColor=#9673a6;fillColor=#CCFF99;" parent="1" vertex="1">
                    <mxGeometry x="760" y="1240" width="120" height="120" as="geometry"/>
                </mxCell>
                <mxCell id="166" value="HAS_TYPE" style="edgeStyle=none;html=1;" parent="1" source="167" target="171" edge="1">
                    <mxGeometry relative="1" as="geometry"/>
                </mxCell>
                <mxCell id="167" value="&lt;b&gt;&lt;font style=&quot;font-size: 13px&quot; color=&quot;#000000&quot;&gt;NodeDef&lt;br&gt;&lt;/font&gt;&lt;/b&gt;&lt;span style=&quot;color: rgb(0 , 0 , 0) ; font-size: 13px&quot;&gt;- name: &quot;NodeStyle&quot;&lt;/span&gt;&lt;b&gt;&lt;font style=&quot;font-size: 13px&quot; color=&quot;#000000&quot;&gt;&lt;br&gt;&lt;/font&gt;&lt;/b&gt;" style="ellipse;whiteSpace=wrap;html=1;aspect=fixed;direction=west;strokeColor=#9673a6;fillColor=#CCFF99;" parent="1" vertex="1">
                    <mxGeometry x="1960" y="1440" width="120" height="120" as="geometry"/>
                </mxCell>
                <mxCell id="168" value="HAS_PROPERTY" style="edgeStyle=none;rounded=0;orthogonalLoop=1;jettySize=auto;html=1;" parent="1" source="171" target="174" edge="1">
                    <mxGeometry relative="1" as="geometry"/>
                </mxCell>
                <mxCell id="169" value="HAS_PROPERTY" style="edgeStyle=none;rounded=0;orthogonalLoop=1;jettySize=auto;html=1;" parent="1" source="171" target="173" edge="1">
                    <mxGeometry relative="1" as="geometry"/>
                </mxCell>
                <mxCell id="170" value="HAS_PROPERTY" style="edgeStyle=none;rounded=0;orthogonalLoop=1;jettySize=auto;html=1;" parent="1" source="171" target="172" edge="1">
                    <mxGeometry relative="1" as="geometry"/>
                </mxCell>
                <mxCell id="171" value="&lt;font style=&quot;font-size: 13px&quot; color=&quot;#000000&quot;&gt;&lt;b&gt;Type&lt;/b&gt;&lt;br&gt;- name: &quot;NodeStyle&quot;&lt;br&gt;&lt;/font&gt;" style="ellipse;whiteSpace=wrap;html=1;aspect=fixed;direction=west;fillColor=#ffe6cc;strokeColor=#d79b00;" parent="1" vertex="1">
                    <mxGeometry x="1720" y="1440" width="120" height="120" as="geometry"/>
                </mxCell>
                <mxCell id="172" value="&lt;font style=&quot;font-size: 13px&quot; color=&quot;#000000&quot;&gt;&lt;b&gt;Property&lt;/b&gt;&lt;br&gt;- name: &quot;color&quot;&lt;br&gt;- type: &quot;String&quot;&lt;br&gt;&lt;/font&gt;" style="ellipse;whiteSpace=wrap;html=1;aspect=fixed;direction=west;strokeColor=#d79b00;fillColor=#FF9999;" parent="1" vertex="1">
                    <mxGeometry x="1480" y="1440" width="120" height="120" as="geometry"/>
                </mxCell>
                <mxCell id="173" value="&lt;font style=&quot;font-size: 13px&quot; color=&quot;#000000&quot;&gt;&lt;b&gt;Property&lt;/b&gt;&lt;br&gt;- name: &quot;icon&quot;&lt;br&gt;- type: &quot;String&quot;&lt;br&gt;&lt;/font&gt;" style="ellipse;whiteSpace=wrap;html=1;aspect=fixed;direction=west;strokeColor=#d79b00;fillColor=#FF9999;" parent="1" vertex="1">
                    <mxGeometry x="1480" y="1640" width="120" height="120" as="geometry"/>
                </mxCell>
                <mxCell id="174" value="&lt;font style=&quot;font-size: 13px&quot; color=&quot;#000000&quot;&gt;&lt;b&gt;Property&lt;/b&gt;&lt;br&gt;- name: &quot;size&quot;&lt;br&gt;- type: &quot;Integer&quot;&lt;br&gt;&lt;/font&gt;" style="ellipse;whiteSpace=wrap;html=1;aspect=fixed;direction=west;strokeColor=#d79b00;fillColor=#FF9999;" parent="1" vertex="1">
                    <mxGeometry x="1480" y="1840" width="120" height="120" as="geometry"/>
                </mxCell>
                <mxCell id="175" value="REL_SOURCE" style="edgeStyle=none;rounded=0;orthogonalLoop=1;jettySize=auto;html=1;" parent="1" source="176" target="57" edge="1">
                    <mxGeometry relative="1" as="geometry">
                        <mxPoint x="1914.5678552377076" y="-2710.2464076147844" as="targetPoint"/>
                    </mxGeometry>
                </mxCell>
                <mxCell id="183" value="REL_TARGET" style="edgeStyle=none;html=1;" parent="1" source="176" target="189" edge="1">
                    <mxGeometry relative="1" as="geometry">
                        <mxPoint x="2630" y="-1630" as="targetPoint"/>
                    </mxGeometry>
                </mxCell>
                <mxCell id="176" value="&lt;b&gt;&lt;font style=&quot;font-size: 13px&quot; color=&quot;#000000&quot;&gt;RelDef&lt;br&gt;&lt;/font&gt;&lt;/b&gt;&lt;span style=&quot;color: rgb(0 , 0 , 0) ; font-size: 13px&quot;&gt;- name: &quot;PROVIDES_CONTEXT&quot;&lt;/span&gt;&lt;b&gt;&lt;font style=&quot;font-size: 13px&quot; color=&quot;#000000&quot;&gt;&lt;br&gt;&lt;/font&gt;&lt;/b&gt;" style="ellipse;whiteSpace=wrap;html=1;aspect=fixed;direction=west;strokeColor=#9673a6;fillColor=#CCFF99;" parent="1" vertex="1">
                    <mxGeometry x="1000" y="1840" width="120" height="120" as="geometry"/>
                </mxCell>
                <mxCell id="180" value="&lt;b&gt;&lt;font style=&quot;font-size: 13px&quot; color=&quot;#000000&quot;&gt;NodeDef&lt;br&gt;&lt;/font&gt;&lt;/b&gt;&lt;span style=&quot;color: rgb(0 , 0 , 0) ; font-size: 13px&quot;&gt;- name: &quot;Widget&quot;&lt;/span&gt;&lt;b&gt;&lt;font style=&quot;font-size: 13px&quot; color=&quot;#000000&quot;&gt;&lt;br&gt;&lt;/font&gt;&lt;/b&gt;" style="ellipse;whiteSpace=wrap;html=1;aspect=fixed;direction=west;strokeColor=#9673a6;fillColor=#CCFF99;" parent="1" vertex="1">
                    <mxGeometry x="760" y="2240" width="120" height="120" as="geometry"/>
                </mxCell>
                <mxCell id="181" value="&lt;font style=&quot;font-size: 13px&quot; color=&quot;#000000&quot;&gt;&lt;b&gt;Property&lt;/b&gt;&lt;br&gt;- name: &quot;group&quot;&lt;br&gt;- type: &quot;String&quot;&lt;br&gt;&lt;/font&gt;" style="ellipse;whiteSpace=wrap;html=1;aspect=fixed;direction=west;strokeColor=#d79b00;fillColor=#FF9999;" parent="1" vertex="1">
                    <mxGeometry x="280" y="1440" width="120" height="120" as="geometry"/>
                </mxCell>
                <mxCell id="187" value="&lt;font color=&quot;#000000&quot;&gt;&lt;b style=&quot;font-size: 13px&quot;&gt;@@Metagraph&lt;/b&gt;&lt;br&gt;&lt;span style=&quot;font-size: 13px&quot;&gt;- name: &quot;Computation&quot;&lt;/span&gt;&lt;br&gt;&lt;span style=&quot;font-size: 13px&quot;&gt;- uuid: &quot;2377b64e-6d8b-4837-bee6-dd59f1330251&quot;&lt;/span&gt;&lt;br&gt;&lt;/font&gt;" style="ellipse;whiteSpace=wrap;html=1;aspect=fixed;direction=west;strokeColor=#56517e;fillColor=#d0cee2;" parent="1" vertex="1">
                    <mxGeometry x="280" y="2440" width="120" height="120" as="geometry"/>
                </mxCell>
                <mxCell id="188" value="DEFINES" style="edgeStyle=none;html=1;dashed=1;" parent="1" source="187" target="189" edge="1">
                    <mxGeometry relative="1" as="geometry"/>
                </mxCell>
                <mxCell id="189" value="&lt;b&gt;&lt;font style=&quot;font-size: 13px&quot; color=&quot;#000000&quot;&gt;@@NodeDef&lt;br&gt;&lt;/font&gt;&lt;/b&gt;&lt;span style=&quot;color: rgb(0 , 0 , 0) ; font-size: 13px&quot;&gt;- name: &quot;Input&quot;&lt;br&gt;&lt;/span&gt;&lt;font color=&quot;#000000&quot;&gt;&lt;span style=&quot;font-size: 13px&quot;&gt;- uuid: &quot;0b9ffc83-849a-44ee-b1a1-9128b0fa8f43&quot;&lt;/span&gt;&lt;br&gt;&lt;/font&gt;" style="ellipse;whiteSpace=wrap;html=1;aspect=fixed;direction=west;strokeColor=#9673a6;fillColor=#CCFF99;" parent="1" vertex="1">
                    <mxGeometry x="1480" y="2440" width="120" height="120" as="geometry"/>
                </mxCell>
                <mxCell id="193" value="DEFINES" style="edgeStyle=none;html=1;dashed=1;" parent="1" source="201" target="197" edge="1">
                    <mxGeometry relative="1" as="geometry"/>
                </mxCell>
                <mxCell id="194" value="DEFINES" style="edgeStyle=none;html=1;dashed=1;" parent="1" source="201" target="200" edge="1">
                    <mxGeometry relative="1" as="geometry"/>
                </mxCell>
                <mxCell id="195" value="DEFINES" style="edgeStyle=none;html=1;dashed=1;" parent="1" source="201" target="199" edge="1">
                    <mxGeometry relative="1" as="geometry"/>
                </mxCell>
                <mxCell id="196" value="DEFINES" style="edgeStyle=none;html=1;dashed=1;" parent="1" source="201" target="198" edge="1">
                    <mxGeometry relative="1" as="geometry"/>
                </mxCell>
                <mxCell id="197" value="&lt;b&gt;&lt;font style=&quot;font-size: 13px&quot; color=&quot;#000000&quot;&gt;@@NodeDef&lt;br&gt;&lt;/font&gt;&lt;/b&gt;&lt;span style=&quot;color: rgb(0 , 0 , 0) ; font-size: 13px&quot;&gt;- name: &quot;Metagraph&quot;&lt;br&gt;&lt;/span&gt;&lt;font color=&quot;#000000&quot;&gt;&lt;span style=&quot;font-size: 13px&quot;&gt;- uuid: &quot;c130660a-4718-4136-8ed6-c8abd4556443&quot;&lt;/span&gt;&lt;br&gt;&lt;/font&gt;" style="ellipse;whiteSpace=wrap;html=1;aspect=fixed;direction=west;strokeColor=#9673a6;fillColor=#CCFF99;" parent="1" vertex="1">
                    <mxGeometry x="1240" y="2640" width="120" height="120" as="geometry"/>
                </mxCell>
                <mxCell id="198" value="&lt;b&gt;&lt;font color=&quot;#000000&quot; style=&quot;font-size: 13px&quot;&gt;@@&lt;/font&gt;&lt;/b&gt;&lt;b&gt;&lt;font color=&quot;#000000&quot; style=&quot;font-size: 13px&quot;&gt;NodeDef&lt;br&gt;&lt;/font&gt;&lt;/b&gt;&lt;span style=&quot;color: rgb(0 , 0 , 0) ; font-size: 13px&quot;&gt;- name: &quot;Property&quot;&lt;br&gt;&lt;/span&gt;&lt;font color=&quot;#000000&quot;&gt;&lt;span style=&quot;font-size: 13px&quot;&gt;- uuid: &quot;c44baf47-7a11-42a5-98eb-0df8989339c6&quot;&lt;/span&gt;&lt;/font&gt;&lt;b&gt;&lt;font style=&quot;font-size: 13px&quot; color=&quot;#000000&quot;&gt;&lt;br&gt;&lt;/font&gt;&lt;/b&gt;" style="ellipse;whiteSpace=wrap;html=1;aspect=fixed;direction=west;strokeColor=#9673a6;fillColor=#CCFF99;" parent="1" vertex="1">
                    <mxGeometry x="2200" y="2640" width="120" height="120" as="geometry"/>
                </mxCell>
                <mxCell id="199" value="&lt;b&gt;&lt;font color=&quot;#000000&quot; style=&quot;font-size: 13px&quot;&gt;@@&lt;/font&gt;&lt;/b&gt;&lt;b&gt;&lt;font style=&quot;font-size: 13px&quot; color=&quot;#000000&quot;&gt;NodeDef&lt;br&gt;&lt;/font&gt;&lt;/b&gt;&lt;span style=&quot;color: rgb(0 , 0 , 0) ; font-size: 13px&quot;&gt;- name: &quot;NodeDef&quot;&lt;br&gt;&lt;/span&gt;&lt;font color=&quot;#000000&quot;&gt;&lt;span style=&quot;font-size: 13px&quot;&gt;- uuid: &quot;065067f4-06e0-4ff0-b49e-9eeaa6ff8f8a&quot;&lt;/span&gt;&lt;br&gt;&lt;/font&gt;" style="ellipse;whiteSpace=wrap;html=1;aspect=fixed;direction=west;strokeColor=#9673a6;fillColor=#CCFF99;" parent="1" vertex="1">
                    <mxGeometry x="1720" y="2640" width="120" height="120" as="geometry"/>
                </mxCell>
                <mxCell id="200" value="&lt;b&gt;&lt;font color=&quot;#000000&quot; style=&quot;font-size: 13px&quot;&gt;@@&lt;/font&gt;&lt;/b&gt;&lt;b&gt;&lt;font style=&quot;font-size: 13px&quot; color=&quot;#000000&quot;&gt;NodeDef&lt;br&gt;&lt;/font&gt;&lt;/b&gt;&lt;span style=&quot;color: rgb(0 , 0 , 0) ; font-size: 13px&quot;&gt;- name: &quot;RelDef&quot;&lt;br&gt;&lt;/span&gt;&lt;font color=&quot;#000000&quot;&gt;&lt;span style=&quot;font-size: 13px&quot;&gt;- uuid: &quot;e255a339-9763-48b0-9ba8-e4de15160da3&quot;&lt;/span&gt;&lt;br&gt;&lt;/font&gt;" style="ellipse;whiteSpace=wrap;html=1;aspect=fixed;direction=west;strokeColor=#9673a6;fillColor=#CCFF99;" parent="1" vertex="1">
                    <mxGeometry x="2680" y="2640" width="120" height="120" as="geometry"/>
                </mxCell>
                <mxCell id="201" value="&lt;b&gt;&lt;font color=&quot;#000000&quot; style=&quot;font-size: 13px&quot;&gt;@@&lt;/font&gt;&lt;/b&gt;&lt;b style=&quot;color: rgb(0 , 0 , 0) ; font-size: 13px&quot;&gt;Metagraph&lt;/b&gt;&lt;br style=&quot;color: rgb(0 , 0 , 0)&quot;&gt;&lt;span style=&quot;color: rgb(0 , 0 , 0) ; font-size: 13px&quot;&gt;- name: &quot;Meta&quot;&lt;/span&gt;&lt;br style=&quot;color: rgb(0 , 0 , 0)&quot;&gt;&lt;span style=&quot;color: rgb(0 , 0 , 0) ; font-size: 13px&quot;&gt;- uuid: &quot;d9262ce3-7847-4263-aa18-a27bcdc1f642&quot;&lt;/span&gt;&lt;font style=&quot;font-size: 13px&quot; color=&quot;#000000&quot;&gt;&lt;br&gt;&lt;/font&gt;" style="ellipse;whiteSpace=wrap;html=1;aspect=fixed;direction=west;strokeColor=#56517e;fillColor=#d0cee2;" parent="1" vertex="1">
                    <mxGeometry x="40" y="2640" width="120" height="120" as="geometry"/>
                </mxCell>
                <mxCell id="208" value="&lt;font style=&quot;font-size: 13px&quot; color=&quot;#000000&quot;&gt;&lt;b&gt;Property&lt;/b&gt;&lt;br&gt;- name: &quot;strategy&quot;&lt;br&gt;- type: &quot;String&quot;&lt;br&gt;&lt;/font&gt;" style="ellipse;whiteSpace=wrap;html=1;aspect=fixed;direction=west;strokeColor=#d79b00;fillColor=#FF9999;" parent="1" vertex="1">
                    <mxGeometry x="280" y="1840" width="120" height="120" as="geometry"/>
                </mxCell>
                <mxCell id="217" value="HAS_TYPE" style="edgeStyle=none;html=1;" parent="1" source="210" target="282" edge="1">
                    <mxGeometry relative="1" as="geometry"/>
                </mxCell>
                <mxCell id="210" value="&lt;b&gt;&lt;font style=&quot;font-size: 13px&quot; color=&quot;#000000&quot;&gt;NodeDef&lt;br&gt;&lt;/font&gt;&lt;/b&gt;&lt;span style=&quot;color: rgb(0 , 0 , 0) ; font-size: 13px&quot;&gt;- name: &quot;View&quot;&lt;br&gt;&lt;/span&gt;&lt;font color=&quot;#000000&quot;&gt;&lt;span style=&quot;font-size: 13px&quot;&gt;- uuid: &quot;b30e0e28-9b6c-4393-8d41-3f5f31664cec&quot;&lt;/span&gt;&lt;br&gt;&lt;/font&gt;" style="ellipse;whiteSpace=wrap;html=1;aspect=fixed;direction=west;strokeColor=#9673a6;fillColor=#CCFF99;" parent="1" vertex="1">
                    <mxGeometry x="1480" y="640" width="120" height="120" as="geometry"/>
                </mxCell>
                <mxCell id="212" value="REL_SOURCE" style="edgeStyle=none;html=1;" parent="1" source="211" target="48" edge="1">
                    <mxGeometry relative="1" as="geometry"/>
                </mxCell>
                <mxCell id="213" value="REL_TARGET" style="edgeStyle=none;html=1;" parent="1" source="211" target="210" edge="1">
                    <mxGeometry relative="1" as="geometry"/>
                </mxCell>
                <mxCell id="211" value="&lt;b&gt;&lt;font style=&quot;font-size: 13px&quot; color=&quot;#000000&quot;&gt;RelDef&lt;br&gt;&lt;/font&gt;&lt;/b&gt;&lt;span style=&quot;color: rgb(0 , 0 , 0) ; font-size: 13px&quot;&gt;- name: &quot;HAS_VIEW&quot;&lt;/span&gt;&lt;b&gt;&lt;font style=&quot;font-size: 13px&quot; color=&quot;#000000&quot;&gt;&lt;br&gt;&lt;/font&gt;&lt;/b&gt;" style="ellipse;whiteSpace=wrap;html=1;aspect=fixed;direction=west;strokeColor=#9673a6;fillColor=#CCFF99;" parent="1" vertex="1">
                    <mxGeometry x="1480" y="440" width="120" height="120" as="geometry"/>
                </mxCell>
                <mxCell id="223" value="HAS_TYPE" style="edgeStyle=none;html=1;" parent="1" source="221" target="282" edge="1">
                    <mxGeometry relative="1" as="geometry"/>
                </mxCell>
                <mxCell id="221" value="&lt;b&gt;&lt;font style=&quot;font-size: 13px&quot; color=&quot;#000000&quot;&gt;NodeDef&lt;br&gt;&lt;/font&gt;&lt;/b&gt;&lt;span style=&quot;color: rgb(0 , 0 , 0) ; font-size: 13px&quot;&gt;- name: &quot;Functionality&quot;&lt;/span&gt;&lt;b&gt;&lt;font style=&quot;font-size: 13px&quot; color=&quot;#000000&quot;&gt;&lt;br&gt;&lt;/font&gt;&lt;/b&gt;" style="ellipse;whiteSpace=wrap;html=1;aspect=fixed;direction=west;strokeColor=#9673a6;fillColor=#CCFF99;" parent="1" vertex="1">
                    <mxGeometry x="760" y="1040" width="120" height="120" as="geometry"/>
                </mxCell>
                <mxCell id="227" value="REL_SOURCE" style="edgeStyle=none;html=1;" parent="1" source="226" target="210" edge="1">
                    <mxGeometry relative="1" as="geometry"/>
                </mxCell>
                <mxCell id="228" value="REL_TARGET" style="edgeStyle=none;html=1;" parent="1" source="226" target="221" edge="1">
                    <mxGeometry relative="1" as="geometry"/>
                </mxCell>
                <mxCell id="226" value="&lt;b&gt;&lt;font style=&quot;font-size: 13px&quot; color=&quot;#000000&quot;&gt;RelDef&lt;br&gt;&lt;/font&gt;&lt;/b&gt;&lt;span style=&quot;color: rgb(0 , 0 , 0) ; font-size: 13px&quot;&gt;- name: &quot;HAS_FUNCTIONALITY&quot;&lt;/span&gt;&lt;b&gt;&lt;font style=&quot;font-size: 13px&quot; color=&quot;#000000&quot;&gt;&lt;br&gt;&lt;/font&gt;&lt;/b&gt;" style="ellipse;whiteSpace=wrap;html=1;aspect=fixed;direction=west;strokeColor=#9673a6;fillColor=#CCFF99;" parent="1" vertex="1">
                    <mxGeometry x="1240" y="640" width="120" height="120" as="geometry"/>
                </mxCell>
                <mxCell id="233" value="HAS_TYPE" style="edgeStyle=none;html=1;" parent="1" source="229" target="282" edge="1">
                    <mxGeometry x="0.0699" y="2" relative="1" as="geometry">
                        <mxPoint as="offset"/>
                    </mxGeometry>
                </mxCell>
                <mxCell id="229" value="&lt;b&gt;&lt;font style=&quot;font-size: 13px&quot; color=&quot;#000000&quot;&gt;NodeDef&lt;br&gt;&lt;/font&gt;&lt;/b&gt;&lt;span style=&quot;color: rgb(0 , 0 , 0) ; font-size: 13px&quot;&gt;- name: &quot;Style&quot;&lt;/span&gt;&lt;b&gt;&lt;font style=&quot;font-size: 13px&quot; color=&quot;#000000&quot;&gt;&lt;br&gt;&lt;/font&gt;&lt;/b&gt;" style="ellipse;whiteSpace=wrap;html=1;aspect=fixed;direction=west;strokeColor=#9673a6;fillColor=#CCFF99;" parent="1" vertex="1">
                    <mxGeometry x="2200" y="1040" width="120" height="120" as="geometry"/>
                </mxCell>
                <mxCell id="230" value="REL_SOURCE" style="edgeStyle=none;html=1;" parent="1" source="232" target="210" edge="1">
                    <mxGeometry relative="1" as="geometry">
                        <mxPoint x="2259.999999999999" y="850" as="targetPoint"/>
                    </mxGeometry>
                </mxCell>
                <mxCell id="231" value="REL_TARGET" style="edgeStyle=none;html=1;" parent="1" source="232" target="229" edge="1">
                    <mxGeometry relative="1" as="geometry"/>
                </mxCell>
                <mxCell id="232" value="&lt;b&gt;&lt;font style=&quot;font-size: 13px&quot; color=&quot;#000000&quot;&gt;RelDef&lt;br&gt;&lt;/font&gt;&lt;/b&gt;&lt;span style=&quot;color: rgb(0 , 0 , 0) ; font-size: 13px&quot;&gt;- name: &quot;HAS_STYLE&quot;&lt;/span&gt;&lt;b&gt;&lt;font style=&quot;font-size: 13px&quot; color=&quot;#000000&quot;&gt;&lt;br&gt;&lt;/font&gt;&lt;/b&gt;" style="ellipse;whiteSpace=wrap;html=1;aspect=fixed;direction=west;strokeColor=#9673a6;fillColor=#CCFF99;" parent="1" vertex="1">
                    <mxGeometry x="1720" y="640" width="120" height="120" as="geometry"/>
                </mxCell>
                <mxCell id="238" value="REL_SOURCE" style="edgeStyle=none;html=1;" parent="1" source="234" target="229" edge="1">
                    <mxGeometry relative="1" as="geometry"/>
                </mxCell>
                <mxCell id="242" value="REL_TARGET" style="edgeStyle=none;html=1;" parent="1" source="234" target="167" edge="1">
                    <mxGeometry relative="1" as="geometry"/>
                </mxCell>
                <mxCell id="234" value="&lt;b&gt;&lt;font style=&quot;font-size: 13px&quot; color=&quot;#000000&quot;&gt;RelDef&lt;br&gt;&lt;/font&gt;&lt;/b&gt;&lt;span style=&quot;color: rgb(0 , 0 , 0) ; font-size: 13px&quot;&gt;- name: &quot;NODE_STYLE&quot;&lt;/span&gt;&lt;b&gt;&lt;font style=&quot;font-size: 13px&quot; color=&quot;#000000&quot;&gt;&lt;br&gt;&lt;/font&gt;&lt;/b&gt;" style="ellipse;whiteSpace=wrap;html=1;aspect=fixed;direction=west;strokeColor=#9673a6;fillColor=#CCFF99;" parent="1" vertex="1">
                    <mxGeometry x="1960" y="1240" width="120" height="120" as="geometry"/>
                </mxCell>
                <mxCell id="239" value="REL_SOURCE" style="edgeStyle=none;html=1;" parent="1" source="235" target="229" edge="1">
                    <mxGeometry relative="1" as="geometry"/>
                </mxCell>
                <mxCell id="243" value="REL_TARGET" style="edgeStyle=none;html=1;" parent="1" source="235" target="167" edge="1">
                    <mxGeometry relative="1" as="geometry"/>
                </mxCell>
                <mxCell id="235" value="&lt;b&gt;&lt;font style=&quot;font-size: 13px&quot; color=&quot;#000000&quot;&gt;RelDef&lt;br&gt;&lt;/font&gt;&lt;/b&gt;&lt;span style=&quot;color: rgb(0 , 0 , 0) ; font-size: 13px&quot;&gt;- name: &quot;DEFAULT_NODE_STYLE&quot;&lt;/span&gt;&lt;b&gt;&lt;font style=&quot;font-size: 13px&quot; color=&quot;#000000&quot;&gt;&lt;br&gt;&lt;/font&gt;&lt;/b&gt;" style="ellipse;whiteSpace=wrap;html=1;aspect=fixed;direction=west;strokeColor=#9673a6;fillColor=#CCFF99;" parent="1" vertex="1">
                    <mxGeometry x="1720" y="1240" width="120" height="120" as="geometry"/>
                </mxCell>
                <mxCell id="240" value="REL_SOURCE" style="edgeStyle=none;html=1;" parent="1" source="236" target="229" edge="1">
                    <mxGeometry relative="1" as="geometry"/>
                </mxCell>
                <mxCell id="244" value="REL_TARGET" style="edgeStyle=none;html=1;" parent="1" source="236" target="54" edge="1">
                    <mxGeometry relative="1" as="geometry"/>
                </mxCell>
                <mxCell id="236" value="&lt;b&gt;&lt;font style=&quot;font-size: 13px&quot; color=&quot;#000000&quot;&gt;RelDef&lt;br&gt;&lt;/font&gt;&lt;/b&gt;&lt;span style=&quot;color: rgb(0 , 0 , 0) ; font-size: 13px&quot;&gt;- name: &quot;REL_STYLE&quot;&lt;/span&gt;&lt;b&gt;&lt;font style=&quot;font-size: 13px&quot; color=&quot;#000000&quot;&gt;&lt;br&gt;&lt;/font&gt;&lt;/b&gt;" style="ellipse;whiteSpace=wrap;html=1;aspect=fixed;direction=west;strokeColor=#9673a6;fillColor=#CCFF99;" parent="1" vertex="1">
                    <mxGeometry x="2440" y="1240" width="120" height="120" as="geometry"/>
                </mxCell>
                <mxCell id="241" value="REL_SOURCE" style="edgeStyle=none;html=1;" parent="1" source="237" target="229" edge="1">
                    <mxGeometry relative="1" as="geometry"/>
                </mxCell>
                <mxCell id="245" value="REL_TARGET" style="edgeStyle=none;html=1;" parent="1" source="237" target="54" edge="1">
                    <mxGeometry relative="1" as="geometry"/>
                </mxCell>
                <mxCell id="237" value="&lt;b&gt;&lt;font style=&quot;font-size: 13px&quot; color=&quot;#000000&quot;&gt;RelDef&lt;br&gt;&lt;/font&gt;&lt;/b&gt;&lt;span style=&quot;color: rgb(0 , 0 , 0) ; font-size: 13px&quot;&gt;- name: &quot;DEFAULT_&lt;/span&gt;&lt;span style=&quot;color: rgb(0 , 0 , 0) ; font-size: 13px&quot;&gt;REL_STYLE&lt;/span&gt;&lt;span style=&quot;color: rgb(0 , 0 , 0) ; font-size: 13px&quot;&gt;&quot;&lt;/span&gt;&lt;b&gt;&lt;font style=&quot;font-size: 13px&quot; color=&quot;#000000&quot;&gt;&lt;br&gt;&lt;/font&gt;&lt;/b&gt;" style="ellipse;whiteSpace=wrap;html=1;aspect=fixed;direction=west;strokeColor=#9673a6;fillColor=#CCFF99;" parent="1" vertex="1">
                    <mxGeometry x="2680" y="1240" width="120" height="120" as="geometry"/>
                </mxCell>
                <mxCell id="246" value="HAS_PROPERTY" style="edgeStyle=none;rounded=0;orthogonalLoop=1;jettySize=auto;html=1;" parent="1" source="91" target="247" edge="1">
                    <mxGeometry relative="1" as="geometry">
                        <mxPoint x="2560" y="700" as="sourcePoint"/>
                    </mxGeometry>
                </mxCell>
                <mxCell id="247" value="&lt;font style=&quot;font-size: 13px&quot; color=&quot;#000000&quot;&gt;&lt;b&gt;Property&lt;/b&gt;&lt;br&gt;- name: &quot;visible&quot;&lt;br&gt;- type: &quot;Boolean&quot;&lt;br&gt;&lt;/font&gt;" style="ellipse;whiteSpace=wrap;html=1;aspect=fixed;direction=west;strokeColor=#d79b00;fillColor=#FF9999;" parent="1" vertex="1">
                    <mxGeometry x="2680" y="440" width="120" height="120" as="geometry"/>
                </mxCell>
                <mxCell id="282" value="&lt;font color=&quot;#000000&quot;&gt;&lt;b style=&quot;font-size: 13px&quot;&gt;@@Type&lt;/b&gt;&lt;br&gt;&lt;span style=&quot;font-size: 13px&quot;&gt;- name: &quot;Named&quot;&lt;/span&gt;&lt;br&gt;&lt;span style=&quot;font-size: 13px&quot;&gt;- uuid: &quot;73c199cd-87ee-478d-86bb-61e85e67e371&quot;&lt;/span&gt;&lt;br&gt;&lt;/font&gt;" style="ellipse;whiteSpace=wrap;html=1;aspect=fixed;direction=west;fillColor=#ffe6cc;strokeColor=#d79b00;" parent="1" vertex="1">
                    <mxGeometry x="1240" y="2840" width="120" height="120" as="geometry"/>
                </mxCell>
                <mxCell id="283" value="DEFINES" style="edgeStyle=none;html=1;dashed=1;" parent="1" source="201" target="282" edge="1">
                    <mxGeometry relative="1" as="geometry">
                        <mxPoint x="419.0897622944067" y="3314.0533654413875" as="sourcePoint"/>
                        <mxPoint x="289.9997590334333" y="2830.0040963753727" as="targetPoint"/>
                    </mxGeometry>
                </mxCell>
                <mxCell id="284" value="&lt;b&gt;&lt;font color=&quot;#000000&quot; style=&quot;font-size: 13px&quot;&gt;@@&lt;/font&gt;&lt;/b&gt;&lt;b&gt;&lt;font style=&quot;font-size: 13px&quot; color=&quot;#000000&quot;&gt;AbstractNodeDef&lt;br&gt;&lt;/font&gt;&lt;/b&gt;&lt;span style=&quot;color: rgb(0 , 0 , 0) ; font-size: 13px&quot;&gt;- name: &quot;Any&quot;&lt;br&gt;&lt;/span&gt;&lt;font color=&quot;#000000&quot;&gt;&lt;span style=&quot;font-size: 13px&quot;&gt;- uuid: &quot;7b762bee-df9b-48b7-bcce-54159f8fde8f&lt;/span&gt;&lt;span style=&quot;font-size: 13px&quot;&gt;&quot;&lt;/span&gt;&lt;br&gt;&lt;/font&gt;" style="ellipse;whiteSpace=wrap;html=1;aspect=fixed;direction=west;strokeColor=#9673a6;fillColor=#CCFF99;" parent="1" vertex="1">
                    <mxGeometry x="1240" y="3040" width="120" height="120" as="geometry"/>
                </mxCell>
                <mxCell id="285" value="DEFINES" style="edgeStyle=none;html=1;dashed=1;" parent="1" source="201" target="284" edge="1">
                    <mxGeometry relative="1" as="geometry">
                        <mxPoint x="50.002964422593834" y="2969.9978011226526" as="sourcePoint"/>
                        <mxPoint x="1131.6263645701079" y="3150.3260607616853" as="targetPoint"/>
                    </mxGeometry>
                </mxCell>
                <mxCell id="288" value="REL_SOURCE" style="edgeStyle=none;html=1;" parent="1" source="286" target="180" edge="1">
                    <mxGeometry relative="1" as="geometry"/>
                </mxCell>
                <mxCell id="289" value="REL_TARGET" style="edgeStyle=none;html=1;" parent="1" source="286" target="298" edge="1">
                    <mxGeometry relative="1" as="geometry"/>
                </mxCell>
                <mxCell id="286" value="&lt;b&gt;&lt;font style=&quot;font-size: 13px&quot; color=&quot;#000000&quot;&gt;RelDef&lt;br&gt;&lt;/font&gt;&lt;/b&gt;&lt;span style=&quot;color: rgb(0 , 0 , 0) ; font-size: 13px&quot;&gt;- name: &quot;ON_INIT&quot;&lt;/span&gt;&lt;b&gt;&lt;font style=&quot;font-size: 13px&quot; color=&quot;#000000&quot;&gt;&lt;br&gt;&lt;/font&gt;&lt;/b&gt;" style="ellipse;whiteSpace=wrap;html=1;aspect=fixed;direction=west;strokeColor=#9673a6;fillColor=#CCFF99;" parent="1" vertex="1">
                    <mxGeometry x="1000" y="2240" width="120" height="120" as="geometry"/>
                </mxCell>
                <mxCell id="287" value="DEFINES" style="edgeStyle=none;rounded=0;orthogonalLoop=1;jettySize=auto;html=1;dashed=1;" parent="1" source="45" target="286" edge="1">
                    <mxGeometry relative="1" as="geometry">
                        <mxPoint x="122.79613687596884" y="168.61961174373369" as="sourcePoint"/>
                        <mxPoint x="577.2099754868909" y="2251.3790543149153" as="targetPoint"/>
                    </mxGeometry>
                </mxCell>
                <mxCell id="296" value="REL_TARGET" style="edgeStyle=none;html=1;" parent="1" source="290" target="199" edge="1">
                    <mxGeometry relative="1" as="geometry"/>
                </mxCell>
                <mxCell id="290" value="&lt;b&gt;&lt;font style=&quot;font-size: 13px&quot; color=&quot;#000000&quot;&gt;RelDef&lt;br&gt;&lt;/font&gt;&lt;/b&gt;&lt;span style=&quot;color: rgb(0 , 0 , 0) ; font-size: 13px&quot;&gt;- name: &quot;FOR_NODE&quot;&lt;/span&gt;&lt;b&gt;&lt;font style=&quot;font-size: 13px&quot; color=&quot;#000000&quot;&gt;&lt;br&gt;&lt;/font&gt;&lt;/b&gt;" style="ellipse;whiteSpace=wrap;html=1;aspect=fixed;direction=west;strokeColor=#9673a6;fillColor=#CCFF99;" parent="1" vertex="1">
                    <mxGeometry x="1240" y="1440" width="120" height="120" as="geometry"/>
                </mxCell>
                <mxCell id="295" value="REL_SOURCE" style="edgeStyle=none;html=1;" parent="1" source="291" target="57" edge="1">
                    <mxGeometry relative="1" as="geometry"/>
                </mxCell>
                <mxCell id="297" value="REL_TARGET" style="edgeStyle=none;html=1;" parent="1" source="291" target="200" edge="1">
                    <mxGeometry relative="1" as="geometry"/>
                </mxCell>
                <mxCell id="291" value="&lt;b&gt;&lt;font style=&quot;font-size: 13px&quot; color=&quot;#000000&quot;&gt;RelDef&lt;br&gt;&lt;/font&gt;&lt;/b&gt;&lt;span style=&quot;color: rgb(0 , 0 , 0) ; font-size: 13px&quot;&gt;- name: &quot;FOR_REL&quot;&lt;/span&gt;&lt;b&gt;&lt;font style=&quot;font-size: 13px&quot; color=&quot;#000000&quot;&gt;&lt;br&gt;&lt;/font&gt;&lt;/b&gt;" style="ellipse;whiteSpace=wrap;html=1;aspect=fixed;direction=west;strokeColor=#9673a6;fillColor=#CCFF99;" parent="1" vertex="1">
                    <mxGeometry x="1240" y="1640" width="120" height="120" as="geometry"/>
                </mxCell>
                <mxCell id="292" value="DEFINES" style="edgeStyle=none;rounded=0;orthogonalLoop=1;jettySize=auto;html=1;dashed=1;" parent="1" source="45" target="290" edge="1">
                    <mxGeometry relative="1" as="geometry">
                        <mxPoint x="150.09976557023174" y="154.63192580667146" as="sourcePoint"/>
                        <mxPoint x="789.9135284113181" y="865.3561337295432" as="targetPoint"/>
                    </mxGeometry>
                </mxCell>
                <mxCell id="293" value="DEFINES" style="edgeStyle=none;rounded=0;orthogonalLoop=1;jettySize=auto;html=1;dashed=1;" parent="1" source="45" target="291" edge="1">
                    <mxGeometry relative="1" as="geometry">
                        <mxPoint x="149.04748240738763" y="155.55539614195322" as="sourcePoint"/>
                        <mxPoint x="1270.9569896955827" y="1464.4407710077803" as="targetPoint"/>
                    </mxGeometry>
                </mxCell>
                <mxCell id="298" value="&lt;b&gt;&lt;font style=&quot;font-size: 13px&quot; color=&quot;#000000&quot;&gt;@@NodeDef&lt;br&gt;&lt;/font&gt;&lt;/b&gt;&lt;span style=&quot;color: rgb(0 , 0 , 0) ; font-size: 13px&quot;&gt;- name: &quot;Function&quot;&lt;br&gt;&lt;/span&gt;&lt;font color=&quot;#000000&quot;&gt;&lt;span style=&quot;font-size: 13px&quot;&gt;- uuid: &quot;b9c2b5e7-94b3-40ff-9e12-ca34df1147f1&quot;&lt;/span&gt;&lt;br&gt;&lt;/font&gt;" style="ellipse;whiteSpace=wrap;html=1;aspect=fixed;direction=west;strokeColor=#9673a6;fillColor=#CCFF99;" parent="1" vertex="1">
                    <mxGeometry x="1720" y="2440" width="120" height="120" as="geometry"/>
                </mxCell>
                <mxCell id="299" value="DEFINES" style="edgeStyle=none;html=1;dashed=1;" parent="1" source="187" target="298" edge="1">
                    <mxGeometry relative="1" as="geometry">
                        <mxPoint x="410" y="2510" as="sourcePoint"/>
                        <mxPoint x="1250" y="2510" as="targetPoint"/>
                    </mxGeometry>
                </mxCell>
                <mxCell id="301" value="REL_SOURCE" style="edgeStyle=none;html=1;" parent="1" source="300" target="57" edge="1">
                    <mxGeometry relative="1" as="geometry"/>
                </mxCell>
                <mxCell id="302" value="REL_TARGET" style="edgeStyle=none;html=1;" parent="1" source="300" target="298" edge="1">
                    <mxGeometry relative="1" as="geometry"/>
                </mxCell>
                <mxCell id="300" value="&lt;b&gt;&lt;font style=&quot;font-size: 13px&quot; color=&quot;#000000&quot;&gt;RelDef&lt;br&gt;&lt;/font&gt;&lt;/b&gt;&lt;span style=&quot;color: rgb(0 , 0 , 0) ; font-size: 13px&quot;&gt;- name: &quot;EXECUTES&quot;&lt;/span&gt;&lt;b&gt;&lt;font style=&quot;font-size: 13px&quot; color=&quot;#000000&quot;&gt;&lt;br&gt;&lt;/font&gt;&lt;/b&gt;" style="ellipse;whiteSpace=wrap;html=1;aspect=fixed;direction=west;strokeColor=#9673a6;fillColor=#CCFF99;" parent="1" vertex="1">
                    <mxGeometry x="1000" y="1640" width="120" height="120" as="geometry"/>
                </mxCell>
            </root>
        </mxGraphModel>
    </diagram>
</mxfile>